<mxfile host="app.diagrams.net" modified="2023-05-16T13:14:01.747Z" agent="Mozilla/5.0 (Windows NT 10.0; Win64; x64) AppleWebKit/537.36 (KHTML, like Gecko) Chrome/113.0.0.0 Safari/537.36" etag="1pC9dbdIfs28AYkUC446" version="21.3.2" type="google">
  <diagram name="Page-1" id="2YBvvXClWsGukQMizWep">
    <mxGraphModel grid="1" page="1" gridSize="10" guides="1" tooltips="1" connect="1" arrows="1" fold="1" pageScale="1" pageWidth="850" pageHeight="1100" math="0" shadow="0">
      <root>
        <mxCell id="0" />
        <mxCell id="1" parent="0" />
        <mxCell id="aM9ryv3xv72pqoxQDRHE-1" value=":Medewerker" style="shape=umlLifeline;perimeter=lifelinePerimeter;whiteSpace=wrap;html=1;container=0;dropTarget=0;collapsible=0;recursiveResize=0;outlineConnect=0;portConstraint=eastwest;newEdgeStyle={&quot;edgeStyle&quot;:&quot;elbowEdgeStyle&quot;,&quot;elbow&quot;:&quot;vertical&quot;,&quot;curved&quot;:0,&quot;rounded&quot;:0};fillColor=none;" vertex="1" parent="1">
          <mxGeometry x="40" y="80" width="100" height="200" as="geometry" />
        </mxCell>
        <mxCell id="aM9ryv3xv72pqoxQDRHE-5" value=":Systeem" style="shape=umlLifeline;perimeter=lifelinePerimeter;whiteSpace=wrap;html=1;container=0;dropTarget=0;collapsible=0;recursiveResize=0;outlineConnect=0;portConstraint=eastwest;newEdgeStyle={&quot;edgeStyle&quot;:&quot;elbowEdgeStyle&quot;,&quot;elbow&quot;:&quot;vertical&quot;,&quot;curved&quot;:0,&quot;rounded&quot;:0};" vertex="1" parent="1">
          <mxGeometry x="400" y="80" width="100" height="200" as="geometry" />
        </mxCell>
        <mxCell id="aM9ryv3xv72pqoxQDRHE-7" value="nieuweKlant(email, gsmnr, nummerplaat, autoMerk, autoModel, motor)" style="html=1;verticalAlign=bottom;endArrow=block;edgeStyle=elbowEdgeStyle;elbow=vertical;curved=0;rounded=0;" edge="1" parent="1" source="aM9ryv3xv72pqoxQDRHE-1" target="aM9ryv3xv72pqoxQDRHE-5">
          <mxGeometry relative="1" as="geometry">
            <mxPoint x="95" y="160" as="sourcePoint" />
            <Array as="points">
              <mxPoint x="250" y="200" />
              <mxPoint x="290" y="170" />
              <mxPoint x="180" y="160" />
            </Array>
            <mxPoint x="265" y="160" as="targetPoint" />
          </mxGeometry>
        </mxCell>
        <mxCell id="oTmclRGym-E0PFQDrP0C-1" value="&amp;lt;&amp;lt;actor&amp;gt;&amp;gt;&lt;br&gt;:Verkeersbelastingsinspectie" style="shape=umlLifeline;perimeter=lifelinePerimeter;whiteSpace=wrap;html=1;container=0;dropTarget=0;collapsible=0;recursiveResize=0;outlineConnect=0;portConstraint=eastwest;newEdgeStyle={&quot;edgeStyle&quot;:&quot;elbowEdgeStyle&quot;,&quot;elbow&quot;:&quot;vertical&quot;,&quot;curved&quot;:0,&quot;rounded&quot;:0};" vertex="1" parent="1">
          <mxGeometry x="640" y="80" width="180" height="200" as="geometry" />
        </mxCell>
        <mxCell id="oTmclRGym-E0PFQDrP0C-2" value="checkNummerplaat (nummerplaat)" style="html=1;verticalAlign=bottom;endArrow=block;edgeStyle=elbowEdgeStyle;elbow=vertical;curved=0;rounded=0;" edge="1" parent="1" source="aM9ryv3xv72pqoxQDRHE-5" target="oTmclRGym-E0PFQDrP0C-1">
          <mxGeometry relative="1" as="geometry">
            <mxPoint x="450" y="180" as="sourcePoint" />
            <Array as="points">
              <mxPoint x="520" y="220" />
              <mxPoint x="630" y="190" />
              <mxPoint x="500" y="190" />
              <mxPoint x="540" y="180" />
            </Array>
            <mxPoint x="810" y="180" as="targetPoint" />
          </mxGeometry>
        </mxCell>
        <mxCell id="oTmclRGym-E0PFQDrP0C-3" value="nummerplaatGeldig" style="html=1;verticalAlign=bottom;endArrow=open;dashed=1;endSize=8;edgeStyle=elbowEdgeStyle;elbow=vertical;curved=0;rounded=0;" edge="1" parent="1" source="oTmclRGym-E0PFQDrP0C-1" target="aM9ryv3xv72pqoxQDRHE-5">
          <mxGeometry relative="1" as="geometry">
            <mxPoint x="460" y="280" as="targetPoint" />
            <Array as="points">
              <mxPoint x="510" y="240" />
              <mxPoint x="600" y="210" />
              <mxPoint x="190" y="280" />
            </Array>
            <mxPoint x="100" y="280" as="sourcePoint" />
            <mxPoint as="offset" />
          </mxGeometry>
        </mxCell>
        <mxCell id="oTmclRGym-E0PFQDrP0C-4" value="bevestigingRegistratie" style="html=1;verticalAlign=bottom;endArrow=open;dashed=1;endSize=8;edgeStyle=elbowEdgeStyle;elbow=vertical;curved=0;rounded=0;" edge="1" parent="1" source="aM9ryv3xv72pqoxQDRHE-5" target="aM9ryv3xv72pqoxQDRHE-1">
          <mxGeometry relative="1" as="geometry">
            <mxPoint x="160" y="229.5" as="targetPoint" />
            <Array as="points">
              <mxPoint x="380" y="260" />
              <mxPoint x="310" y="229.5" />
              <mxPoint x="-100" y="299.5" />
            </Array>
            <mxPoint x="440" y="229.5" as="sourcePoint" />
          </mxGeometry>
        </mxCell>
        <mxCell id="oTmclRGym-E0PFQDrP0C-5" value="checkBestaanKlant(email, gsmnr)" style="html=1;verticalAlign=bottom;endArrow=block;edgeStyle=elbowEdgeStyle;elbow=vertical;curved=0;rounded=0;" edge="1" parent="1">
          <mxGeometry relative="1" as="geometry">
            <mxPoint x="90" y="140" as="sourcePoint" />
            <Array as="points">
              <mxPoint x="290" y="140" />
              <mxPoint x="180" y="130" />
            </Array>
            <mxPoint x="450" y="140" as="targetPoint" />
          </mxGeometry>
        </mxCell>
        <mxCell id="oTmclRGym-E0PFQDrP0C-6" value="klantBestaatNiet" style="html=1;verticalAlign=bottom;endArrow=open;dashed=1;endSize=8;edgeStyle=elbowEdgeStyle;elbow=vertical;curved=0;rounded=0;" edge="1" parent="1" source="aM9ryv3xv72pqoxQDRHE-5" target="aM9ryv3xv72pqoxQDRHE-1">
          <mxGeometry relative="1" as="geometry">
            <mxPoint x="170" y="160" as="targetPoint" />
            <Array as="points">
              <mxPoint x="230" y="160" />
              <mxPoint x="320" y="130" />
              <mxPoint x="-90" y="200" />
            </Array>
            <mxPoint x="450" y="160" as="sourcePoint" />
          </mxGeometry>
        </mxCell>
        <mxCell id="oTmclRGym-E0PFQDrP0C-7" value="HSS" style="text;html=1;strokeColor=#A50040;fillColor=#d80073;align=center;verticalAlign=middle;whiteSpace=wrap;rounded=0;fontColor=#ffffff;" vertex="1" parent="1">
          <mxGeometry x="40" width="120" height="40" as="geometry" />
        </mxCell>
        <mxCell id="oTmclRGym-E0PFQDrP0C-9" value="Alternatief 5a (klant bestaat al)" style="text;html=1;strokeColor=#A50040;fillColor=#d80073;align=center;verticalAlign=middle;whiteSpace=wrap;rounded=0;fontColor=#ffffff;" vertex="1" parent="1">
          <mxGeometry x="40" y="320" width="120" height="40" as="geometry" />
        </mxCell>
        <mxCell id="oTmclRGym-E0PFQDrP0C-10" value=":Medewerker" style="shape=umlLifeline;perimeter=lifelinePerimeter;whiteSpace=wrap;html=1;container=0;dropTarget=0;collapsible=0;recursiveResize=0;outlineConnect=0;portConstraint=eastwest;newEdgeStyle={&quot;edgeStyle&quot;:&quot;elbowEdgeStyle&quot;,&quot;elbow&quot;:&quot;vertical&quot;,&quot;curved&quot;:0,&quot;rounded&quot;:0};fillColor=none;" vertex="1" parent="1">
          <mxGeometry x="40" y="400" width="100" height="120" as="geometry" />
        </mxCell>
        <mxCell id="oTmclRGym-E0PFQDrP0C-11" value=":Systeem" style="shape=umlLifeline;perimeter=lifelinePerimeter;whiteSpace=wrap;html=1;container=0;dropTarget=0;collapsible=0;recursiveResize=0;outlineConnect=0;portConstraint=eastwest;newEdgeStyle={&quot;edgeStyle&quot;:&quot;elbowEdgeStyle&quot;,&quot;elbow&quot;:&quot;vertical&quot;,&quot;curved&quot;:0,&quot;rounded&quot;:0};" vertex="1" parent="1">
          <mxGeometry x="400" y="400" width="100" height="120" as="geometry" />
        </mxCell>
        <mxCell id="oTmclRGym-E0PFQDrP0C-17" value="checkBestaanKlant(email, gsmnr)" style="html=1;verticalAlign=bottom;endArrow=block;edgeStyle=elbowEdgeStyle;elbow=vertical;curved=0;rounded=0;" edge="1" parent="1">
          <mxGeometry relative="1" as="geometry">
            <mxPoint x="90" y="460" as="sourcePoint" />
            <Array as="points">
              <mxPoint x="290" y="460" />
              <mxPoint x="180" y="450" />
            </Array>
            <mxPoint x="450" y="460" as="targetPoint" />
          </mxGeometry>
        </mxCell>
        <mxCell id="oTmclRGym-E0PFQDrP0C-18" value="klantBestaatal" style="html=1;verticalAlign=bottom;endArrow=open;dashed=1;endSize=8;edgeStyle=elbowEdgeStyle;elbow=vertical;curved=0;rounded=0;" edge="1" parent="1" source="oTmclRGym-E0PFQDrP0C-11" target="oTmclRGym-E0PFQDrP0C-10">
          <mxGeometry relative="1" as="geometry">
            <mxPoint x="170" y="480" as="targetPoint" />
            <Array as="points">
              <mxPoint x="230" y="480" />
              <mxPoint x="320" y="450" />
              <mxPoint x="-90" y="520" />
            </Array>
            <mxPoint x="450" y="480" as="sourcePoint" />
          </mxGeometry>
        </mxCell>
        <mxCell id="oTmclRGym-E0PFQDrP0C-28" value="Alternatief 12a (Nrplaat ongeldig)" style="text;html=1;strokeColor=#A50040;fillColor=#d80073;align=center;verticalAlign=middle;whiteSpace=wrap;rounded=0;fontColor=#ffffff;" vertex="1" parent="1">
          <mxGeometry x="40" y="560" width="120" height="40" as="geometry" />
        </mxCell>
        <mxCell id="oTmclRGym-E0PFQDrP0C-32" value=":Medewerker" style="shape=umlLifeline;perimeter=lifelinePerimeter;whiteSpace=wrap;html=1;container=0;dropTarget=0;collapsible=0;recursiveResize=0;outlineConnect=0;portConstraint=eastwest;newEdgeStyle={&quot;edgeStyle&quot;:&quot;elbowEdgeStyle&quot;,&quot;elbow&quot;:&quot;vertical&quot;,&quot;curved&quot;:0,&quot;rounded&quot;:0};fillColor=none;" vertex="1" parent="1">
          <mxGeometry x="40" y="640" width="100" height="280" as="geometry" />
        </mxCell>
        <mxCell id="oTmclRGym-E0PFQDrP0C-33" value=":Systeem" style="shape=umlLifeline;perimeter=lifelinePerimeter;whiteSpace=wrap;html=1;container=0;dropTarget=0;collapsible=0;recursiveResize=0;outlineConnect=0;portConstraint=eastwest;newEdgeStyle={&quot;edgeStyle&quot;:&quot;elbowEdgeStyle&quot;,&quot;elbow&quot;:&quot;vertical&quot;,&quot;curved&quot;:0,&quot;rounded&quot;:0};" vertex="1" parent="1">
          <mxGeometry x="400" y="640" width="100" height="280" as="geometry" />
        </mxCell>
        <mxCell id="oTmclRGym-E0PFQDrP0C-34" value="nieuweKlant(email, gsmnr, nummerplaat, autoMerk, autoModel, motor)" style="html=1;verticalAlign=bottom;endArrow=block;edgeStyle=elbowEdgeStyle;elbow=vertical;curved=0;rounded=0;" edge="1" parent="1" source="oTmclRGym-E0PFQDrP0C-32" target="oTmclRGym-E0PFQDrP0C-33">
          <mxGeometry relative="1" as="geometry">
            <mxPoint x="95" y="720" as="sourcePoint" />
            <Array as="points">
              <mxPoint x="250" y="760" />
              <mxPoint x="290" y="730" />
              <mxPoint x="180" y="720" />
            </Array>
            <mxPoint x="265" y="720" as="targetPoint" />
          </mxGeometry>
        </mxCell>
        <mxCell id="oTmclRGym-E0PFQDrP0C-35" value="&amp;lt;&amp;lt;actor&amp;gt;&amp;gt;&lt;br&gt;:Verkeersbelastingsinspectie" style="shape=umlLifeline;perimeter=lifelinePerimeter;whiteSpace=wrap;html=1;container=0;dropTarget=0;collapsible=0;recursiveResize=0;outlineConnect=0;portConstraint=eastwest;newEdgeStyle={&quot;edgeStyle&quot;:&quot;elbowEdgeStyle&quot;,&quot;elbow&quot;:&quot;vertical&quot;,&quot;curved&quot;:0,&quot;rounded&quot;:0};" vertex="1" parent="1">
          <mxGeometry x="640" y="640" width="180" height="280" as="geometry" />
        </mxCell>
        <mxCell id="oTmclRGym-E0PFQDrP0C-36" value="checkNummerplaat (nummerplaat)" style="html=1;verticalAlign=bottom;endArrow=block;edgeStyle=elbowEdgeStyle;elbow=vertical;curved=0;rounded=0;" edge="1" parent="1" source="oTmclRGym-E0PFQDrP0C-33" target="oTmclRGym-E0PFQDrP0C-35">
          <mxGeometry relative="1" as="geometry">
            <mxPoint x="450" y="740" as="sourcePoint" />
            <Array as="points">
              <mxPoint x="520" y="780" />
              <mxPoint x="630" y="750" />
              <mxPoint x="500" y="750" />
              <mxPoint x="540" y="740" />
            </Array>
            <mxPoint x="810" y="740" as="targetPoint" />
          </mxGeometry>
        </mxCell>
        <mxCell id="oTmclRGym-E0PFQDrP0C-37" value="nummerplaatOngeldig" style="html=1;verticalAlign=bottom;endArrow=open;dashed=1;endSize=8;edgeStyle=elbowEdgeStyle;elbow=vertical;curved=0;rounded=0;" edge="1" parent="1" source="oTmclRGym-E0PFQDrP0C-35" target="oTmclRGym-E0PFQDrP0C-33">
          <mxGeometry relative="1" as="geometry">
            <mxPoint x="460" y="840" as="targetPoint" />
            <Array as="points">
              <mxPoint x="540" y="800" />
              <mxPoint x="510" y="800" />
              <mxPoint x="600" y="770" />
              <mxPoint x="190" y="840" />
            </Array>
            <mxPoint x="100" y="840" as="sourcePoint" />
          </mxGeometry>
        </mxCell>
        <mxCell id="oTmclRGym-E0PFQDrP0C-38" value="bevestigingRegistratie" style="html=1;verticalAlign=bottom;endArrow=open;dashed=1;endSize=8;edgeStyle=elbowEdgeStyle;elbow=vertical;curved=0;rounded=0;" edge="1" parent="1" source="oTmclRGym-E0PFQDrP0C-33" target="oTmclRGym-E0PFQDrP0C-32">
          <mxGeometry relative="1" as="geometry">
            <mxPoint x="160" y="789.5" as="targetPoint" />
            <Array as="points">
              <mxPoint x="370" y="900" />
              <mxPoint x="390" y="880" />
              <mxPoint x="360" y="860" />
              <mxPoint x="230" y="840" />
              <mxPoint x="380" y="820" />
              <mxPoint x="310" y="789.5" />
              <mxPoint x="-100" y="859.5" />
            </Array>
            <mxPoint x="440" y="789.5" as="sourcePoint" />
          </mxGeometry>
        </mxCell>
        <mxCell id="oTmclRGym-E0PFQDrP0C-39" value="checkBestaanKlant(email, gsmnr)" style="html=1;verticalAlign=bottom;endArrow=block;edgeStyle=elbowEdgeStyle;elbow=vertical;curved=0;rounded=0;" edge="1" parent="1">
          <mxGeometry relative="1" as="geometry">
            <mxPoint x="90" y="700" as="sourcePoint" />
            <Array as="points">
              <mxPoint x="290" y="700" />
              <mxPoint x="180" y="690" />
            </Array>
            <mxPoint x="450" y="700" as="targetPoint" />
          </mxGeometry>
        </mxCell>
        <mxCell id="oTmclRGym-E0PFQDrP0C-40" value="klantBestaatNiet" style="html=1;verticalAlign=bottom;endArrow=open;dashed=1;endSize=8;edgeStyle=elbowEdgeStyle;elbow=vertical;curved=0;rounded=0;" edge="1" parent="1" source="oTmclRGym-E0PFQDrP0C-33" target="oTmclRGym-E0PFQDrP0C-32">
          <mxGeometry relative="1" as="geometry">
            <mxPoint x="170" y="720" as="targetPoint" />
            <Array as="points">
              <mxPoint x="230" y="720" />
              <mxPoint x="320" y="690" />
              <mxPoint x="-90" y="760" />
            </Array>
            <mxPoint x="450" y="720" as="sourcePoint" />
          </mxGeometry>
        </mxCell>
        <mxCell id="oTmclRGym-E0PFQDrP0C-41" value="checkNummerplaat (nieuweNummerplaat)" style="html=1;verticalAlign=bottom;endArrow=block;edgeStyle=elbowEdgeStyle;elbow=vertical;curved=0;rounded=0;" edge="1" parent="1" source="oTmclRGym-E0PFQDrP0C-33" target="oTmclRGym-E0PFQDrP0C-35">
          <mxGeometry relative="1" as="geometry">
            <mxPoint x="450" y="850" as="sourcePoint" />
            <Array as="points">
              <mxPoint x="510" y="860" />
              <mxPoint x="520" y="850" />
              <mxPoint x="630" y="820" />
              <mxPoint x="500" y="820" />
              <mxPoint x="540" y="810" />
            </Array>
            <mxPoint x="730" y="850" as="targetPoint" />
          </mxGeometry>
        </mxCell>
        <mxCell id="oTmclRGym-E0PFQDrP0C-53" value="nummerplaatGeldig" style="html=1;verticalAlign=bottom;endArrow=open;dashed=1;endSize=8;edgeStyle=elbowEdgeStyle;elbow=vertical;curved=0;rounded=0;" edge="1" parent="1" source="oTmclRGym-E0PFQDrP0C-35" target="oTmclRGym-E0PFQDrP0C-33">
          <mxGeometry relative="1" as="geometry">
            <mxPoint x="450" y="870" as="targetPoint" />
            <Array as="points">
              <mxPoint x="510" y="880" />
              <mxPoint x="540" y="870" />
              <mxPoint x="510" y="870" />
              <mxPoint x="600" y="840" />
              <mxPoint x="190" y="910" />
            </Array>
            <mxPoint x="730" y="870" as="sourcePoint" />
          </mxGeometry>
        </mxCell>
        <mxCell id="oTmclRGym-E0PFQDrP0C-54" value="nummerplaatOngeldig" style="html=1;verticalAlign=bottom;endArrow=open;dashed=1;endSize=8;edgeStyle=elbowEdgeStyle;elbow=vertical;curved=0;rounded=0;" edge="1" parent="1" source="oTmclRGym-E0PFQDrP0C-33" target="oTmclRGym-E0PFQDrP0C-32">
          <mxGeometry relative="1" as="geometry">
            <mxPoint x="170" y="820" as="targetPoint" />
            <Array as="points">
              <mxPoint x="260" y="820" />
              <mxPoint x="230" y="820" />
              <mxPoint x="320" y="790" />
              <mxPoint x="-90" y="860" />
            </Array>
            <mxPoint x="450" y="820" as="sourcePoint" />
          </mxGeometry>
        </mxCell>
        <mxCell id="oTmclRGym-E0PFQDrP0C-55" value="nieuweNummerplaat(nieuweNummerplaat)" style="html=1;verticalAlign=bottom;endArrow=block;edgeStyle=elbowEdgeStyle;elbow=vertical;curved=0;rounded=0;" edge="1" parent="1" source="oTmclRGym-E0PFQDrP0C-32" target="oTmclRGym-E0PFQDrP0C-33">
          <mxGeometry relative="1" as="geometry">
            <mxPoint x="90" y="840" as="sourcePoint" />
            <Array as="points">
              <mxPoint x="250" y="840" />
              <mxPoint x="290" y="810" />
              <mxPoint x="180" y="800" />
            </Array>
            <mxPoint x="450" y="840" as="targetPoint" />
          </mxGeometry>
        </mxCell>
        <mxCell id="oTmclRGym-E0PFQDrP0C-56" value="Alternatief 12a2a (Nrplaat nog steeds ongeldig)" style="text;html=1;strokeColor=#A50040;fillColor=#d80073;align=center;verticalAlign=middle;whiteSpace=wrap;rounded=0;fontColor=#ffffff;" vertex="1" parent="1">
          <mxGeometry x="40" y="960" width="160" height="40" as="geometry" />
        </mxCell>
        <mxCell id="oTmclRGym-E0PFQDrP0C-57" value=":Medewerker" style="shape=umlLifeline;perimeter=lifelinePerimeter;whiteSpace=wrap;html=1;container=0;dropTarget=0;collapsible=0;recursiveResize=0;outlineConnect=0;portConstraint=eastwest;newEdgeStyle={&quot;edgeStyle&quot;:&quot;elbowEdgeStyle&quot;,&quot;elbow&quot;:&quot;vertical&quot;,&quot;curved&quot;:0,&quot;rounded&quot;:0};fillColor=none;" vertex="1" parent="1">
          <mxGeometry x="40" y="1040" width="100" height="280" as="geometry" />
        </mxCell>
        <mxCell id="oTmclRGym-E0PFQDrP0C-58" value=":Systeem" style="shape=umlLifeline;perimeter=lifelinePerimeter;whiteSpace=wrap;html=1;container=0;dropTarget=0;collapsible=0;recursiveResize=0;outlineConnect=0;portConstraint=eastwest;newEdgeStyle={&quot;edgeStyle&quot;:&quot;elbowEdgeStyle&quot;,&quot;elbow&quot;:&quot;vertical&quot;,&quot;curved&quot;:0,&quot;rounded&quot;:0};" vertex="1" parent="1">
          <mxGeometry x="400" y="1040" width="100" height="280" as="geometry" />
        </mxCell>
        <mxCell id="oTmclRGym-E0PFQDrP0C-59" value="nieuweKlant(email, gsmnr, nummerplaat, autoMerk, autoModel, motor)" style="html=1;verticalAlign=bottom;endArrow=block;edgeStyle=elbowEdgeStyle;elbow=vertical;curved=0;rounded=0;" edge="1" parent="1" source="oTmclRGym-E0PFQDrP0C-57" target="oTmclRGym-E0PFQDrP0C-58">
          <mxGeometry relative="1" as="geometry">
            <mxPoint x="95" y="1120" as="sourcePoint" />
            <Array as="points">
              <mxPoint x="250" y="1160" />
              <mxPoint x="290" y="1130" />
              <mxPoint x="180" y="1120" />
            </Array>
            <mxPoint x="265" y="1120" as="targetPoint" />
          </mxGeometry>
        </mxCell>
        <mxCell id="oTmclRGym-E0PFQDrP0C-60" value="&amp;lt;&amp;lt;actor&amp;gt;&amp;gt;&lt;br&gt;:Verkeersbelastingsinspectie" style="shape=umlLifeline;perimeter=lifelinePerimeter;whiteSpace=wrap;html=1;container=0;dropTarget=0;collapsible=0;recursiveResize=0;outlineConnect=0;portConstraint=eastwest;newEdgeStyle={&quot;edgeStyle&quot;:&quot;elbowEdgeStyle&quot;,&quot;elbow&quot;:&quot;vertical&quot;,&quot;curved&quot;:0,&quot;rounded&quot;:0};" vertex="1" parent="1">
          <mxGeometry x="640" y="1040" width="180" height="280" as="geometry" />
        </mxCell>
        <mxCell id="oTmclRGym-E0PFQDrP0C-61" value="checkNummerplaat (nummerplaat)" style="html=1;verticalAlign=bottom;endArrow=block;edgeStyle=elbowEdgeStyle;elbow=vertical;curved=0;rounded=0;" edge="1" parent="1" source="oTmclRGym-E0PFQDrP0C-58" target="oTmclRGym-E0PFQDrP0C-60">
          <mxGeometry relative="1" as="geometry">
            <mxPoint x="450" y="1140" as="sourcePoint" />
            <Array as="points">
              <mxPoint x="520" y="1180" />
              <mxPoint x="630" y="1150" />
              <mxPoint x="500" y="1150" />
              <mxPoint x="540" y="1140" />
            </Array>
            <mxPoint x="810" y="1140" as="targetPoint" />
          </mxGeometry>
        </mxCell>
        <mxCell id="oTmclRGym-E0PFQDrP0C-62" value="nummerplaatOngeldig" style="html=1;verticalAlign=bottom;endArrow=open;dashed=1;endSize=8;edgeStyle=elbowEdgeStyle;elbow=vertical;curved=0;rounded=0;" edge="1" parent="1" source="oTmclRGym-E0PFQDrP0C-60" target="oTmclRGym-E0PFQDrP0C-58">
          <mxGeometry relative="1" as="geometry">
            <mxPoint x="460" y="1240" as="targetPoint" />
            <Array as="points">
              <mxPoint x="540" y="1200" />
              <mxPoint x="510" y="1200" />
              <mxPoint x="600" y="1170" />
              <mxPoint x="190" y="1240" />
            </Array>
            <mxPoint x="100" y="1240" as="sourcePoint" />
          </mxGeometry>
        </mxCell>
        <mxCell id="oTmclRGym-E0PFQDrP0C-64" value="checkBestaanKlant(email, gsmnr)" style="html=1;verticalAlign=bottom;endArrow=block;edgeStyle=elbowEdgeStyle;elbow=vertical;curved=0;rounded=0;" edge="1" parent="1">
          <mxGeometry relative="1" as="geometry">
            <mxPoint x="90" y="1100" as="sourcePoint" />
            <Array as="points">
              <mxPoint x="290" y="1100" />
              <mxPoint x="180" y="1090" />
            </Array>
            <mxPoint x="450" y="1100" as="targetPoint" />
          </mxGeometry>
        </mxCell>
        <mxCell id="oTmclRGym-E0PFQDrP0C-65" value="klantBestaatNiet" style="html=1;verticalAlign=bottom;endArrow=open;dashed=1;endSize=8;edgeStyle=elbowEdgeStyle;elbow=vertical;curved=0;rounded=0;" edge="1" parent="1" source="oTmclRGym-E0PFQDrP0C-58" target="oTmclRGym-E0PFQDrP0C-57">
          <mxGeometry relative="1" as="geometry">
            <mxPoint x="170" y="1120" as="targetPoint" />
            <Array as="points">
              <mxPoint x="230" y="1120" />
              <mxPoint x="320" y="1090" />
              <mxPoint x="-90" y="1160" />
            </Array>
            <mxPoint x="450" y="1120" as="sourcePoint" />
          </mxGeometry>
        </mxCell>
        <mxCell id="oTmclRGym-E0PFQDrP0C-66" value="checkNummerplaat (nieuweNummerplaat)" style="html=1;verticalAlign=bottom;endArrow=block;edgeStyle=elbowEdgeStyle;elbow=vertical;curved=0;rounded=0;" edge="1" parent="1" source="oTmclRGym-E0PFQDrP0C-58" target="oTmclRGym-E0PFQDrP0C-60">
          <mxGeometry relative="1" as="geometry">
            <mxPoint x="450" y="1250" as="sourcePoint" />
            <Array as="points">
              <mxPoint x="510" y="1260" />
              <mxPoint x="520" y="1250" />
              <mxPoint x="630" y="1220" />
              <mxPoint x="500" y="1220" />
              <mxPoint x="540" y="1210" />
            </Array>
            <mxPoint x="730" y="1250" as="targetPoint" />
          </mxGeometry>
        </mxCell>
        <mxCell id="oTmclRGym-E0PFQDrP0C-67" value="nummerplaatOngeldig" style="html=1;verticalAlign=bottom;endArrow=open;dashed=1;endSize=8;edgeStyle=elbowEdgeStyle;elbow=vertical;curved=0;rounded=0;" edge="1" parent="1" source="oTmclRGym-E0PFQDrP0C-60" target="oTmclRGym-E0PFQDrP0C-58">
          <mxGeometry relative="1" as="geometry">
            <mxPoint x="450" y="1270" as="targetPoint" />
            <Array as="points">
              <mxPoint x="510" y="1280" />
              <mxPoint x="540" y="1270" />
              <mxPoint x="510" y="1270" />
              <mxPoint x="600" y="1240" />
              <mxPoint x="190" y="1310" />
            </Array>
            <mxPoint x="730" y="1270" as="sourcePoint" />
          </mxGeometry>
        </mxCell>
        <mxCell id="oTmclRGym-E0PFQDrP0C-69" value="nieuweNummerplaat(nieuweNummerplaat)" style="html=1;verticalAlign=bottom;endArrow=block;edgeStyle=elbowEdgeStyle;elbow=vertical;curved=0;rounded=0;" edge="1" parent="1" source="oTmclRGym-E0PFQDrP0C-57" target="oTmclRGym-E0PFQDrP0C-58">
          <mxGeometry relative="1" as="geometry">
            <mxPoint x="90" y="1240" as="sourcePoint" />
            <Array as="points">
              <mxPoint x="200" y="1230" />
              <mxPoint x="250" y="1240" />
              <mxPoint x="290" y="1210" />
              <mxPoint x="180" y="1200" />
            </Array>
            <mxPoint x="450" y="1240" as="targetPoint" />
            <mxPoint as="offset" />
          </mxGeometry>
        </mxCell>
        <mxCell id="oTmclRGym-E0PFQDrP0C-70" value="nummerplaatOngeldig" style="html=1;verticalAlign=bottom;endArrow=open;dashed=1;endSize=8;edgeStyle=elbowEdgeStyle;elbow=vertical;curved=0;rounded=0;" edge="1" parent="1" source="oTmclRGym-E0PFQDrP0C-58" target="oTmclRGym-E0PFQDrP0C-57">
          <mxGeometry relative="1" as="geometry">
            <mxPoint x="90" y="1210" as="targetPoint" />
            <Array as="points">
              <mxPoint x="260" y="1210" />
              <mxPoint x="230" y="1210" />
              <mxPoint x="320" y="1180" />
              <mxPoint x="-90" y="1250" />
            </Array>
            <mxPoint x="450" y="1210" as="sourcePoint" />
          </mxGeometry>
        </mxCell>
        <mxCell id="oTmclRGym-E0PFQDrP0C-71" value="nummerplaatOngeldig" style="html=1;verticalAlign=bottom;endArrow=open;dashed=1;endSize=8;edgeStyle=elbowEdgeStyle;elbow=vertical;curved=0;rounded=0;" edge="1" parent="1" source="oTmclRGym-E0PFQDrP0C-58" target="oTmclRGym-E0PFQDrP0C-57">
          <mxGeometry relative="1" as="geometry">
            <mxPoint x="90" y="1300" as="targetPoint" />
            <Array as="points">
              <mxPoint x="260" y="1300" />
              <mxPoint x="230" y="1300" />
              <mxPoint x="320" y="1270" />
              <mxPoint x="-90" y="1340" />
            </Array>
            <mxPoint x="450" y="1300" as="sourcePoint" />
          </mxGeometry>
        </mxCell>
        <mxCell id="oTmclRGym-E0PFQDrP0C-72" value="Alternatief 15a (Nrplaat nog steeds ongeldig)" style="text;html=1;strokeColor=#A50040;fillColor=#d80073;align=center;verticalAlign=middle;whiteSpace=wrap;rounded=0;fontColor=#ffffff;" vertex="1" parent="1">
          <mxGeometry x="40" y="1360" width="160" height="40" as="geometry" />
        </mxCell>
      </root>
    </mxGraphModel>
  </diagram>
</mxfile>
